<?xml version="1.0" encoding="iso-8859-1"?>
<!-- Generator: Adobe Illustrator 19.0.0, SVG Export Plug-In . SVG Version: 6.00 Build 0)  -->
<svg version="1.1" id="Layer_1" xmlns="http://www.w3.org/2000/svg" xmlns:xlink="http://www.w3.org/1999/xlink" x="0px" y="0px"
	 viewBox="0 0 504.123 504.123" style="enable-background:new 0 0 504.123 504.123;" xml:space="preserve">
<path style="fill:#F2B09C;" d="M276.488,293.053c0.008,8.893,7.168,16.053,16.045,16.085l49.16-0.039
	c8.869,0.032,16.053-7.168,16.045-16.045l0,0c-0.008-8.846-7.192-16.03-16.045-16.022l-49.176-0.008
	C283.68,277.023,276.496,284.191,276.488,293.053L276.488,293.053z"/>
<g>
	<path style="fill:#F9C1AC;" d="M348.593,307.168c8.279-0.851,54.973-12.406,54.146-20.716c-0.866-8.302-48.955-10.138-57.242-9.318
		c-8.31,0.859-14.336,8.255-13.485,16.565C332.887,301.993,340.291,308.019,348.593,307.168z"/>
	
		<ellipse transform="matrix(0.8594 -0.5114 0.5114 0.8594 -86.8783 247.6102)" style="fill:#F9C1AC;" cx="406.716" cy="281.75" rx="10.949" ry="6.333"/>
</g>
<path style="fill:#F2B09C;" d="M227.627,293.053c-0.008,8.893-7.168,16.053-16.053,16.085l-49.152-0.039
	c-8.862,0.032-16.053-7.168-16.045-16.045l0,0c0.008-8.846,7.192-16.03,16.045-16.022l49.176-0.008
	C220.428,277.023,227.619,284.191,227.627,293.053L227.627,293.053z"/>
<g>
	<path style="fill:#F9C1AC;" d="M155.514,307.168c-8.271-0.851-54.973-12.406-54.146-20.716c0.874-8.302,48.963-10.138,57.249-9.318
		c8.31,0.859,14.336,8.255,13.485,16.565C171.229,301.993,163.824,308.019,155.514,307.168z"/>
	
		<ellipse transform="matrix(0.8594 0.5114 -0.5114 0.8594 157.7831 -10.1706)" style="fill:#F9C1AC;" cx="97.382" cy="281.764" rx="10.949" ry="6.333"/>
</g>
<ellipse style="fill:#A1AFB2;" cx="252.054" cy="492.016" rx="77.95" ry="12.107"/>
<path style="fill:#BA6831;" d="M348.318,85.843c0,36.636-43.103,66.347-96.264,66.347s-96.264-29.704-96.264-66.347
	C155.798,49.199,198.892,0,252.062,0S348.318,49.199,348.318,85.843z"/>
<path style="fill:#994F1D;" d="M348.318,85.843c0,36.636-43.103,66.347-96.264,66.347s-96.264-29.704-96.264-66.347
	S198.892,9.09,252.054,9.09S348.318,49.199,348.318,85.843z"/>
<path style="fill:#232728;" d="M329.429,364.3c0,56.068-34.643,65.426-77.367,65.426c-42.717,0-77.367-9.358-77.367-65.426
	c0-56.084,34.651-101.549,77.367-101.549C294.778,262.751,329.429,308.216,329.429,364.3z"/>
<path style="fill:#F9C1AC;" d="M440.422,167.219c0,69.837-84.346,104.944-188.361,104.944s-188.361-35.1-188.361-104.944
	S148.039,40.747,252.054,40.747S440.422,97.375,440.422,167.219z"/>
<path style="fill:#F2B09C;" d="M440.422,167.219c0,69.837-84.346,104.944-188.361,104.944s-188.361-35.1-188.361-104.944"/>
<circle style="fill:#113E49;" cx="184.092" cy="205.115" r="12.776"/>
<path d="M196.868,205.115c0,7.066-5.719,12.784-12.776,12.784s-12.776-5.719-12.776-12.784"/>
<path style="fill:#FFD3C5;" d="M209.306,231.778c-0.677,0-1.378-0.26-1.906-0.796c-6.246-6.239-14.525-9.681-23.324-9.681h-0.024
	c-8.783,0-17.069,3.442-23.276,9.665c-1.048,1.056-2.757,1.079-3.797,0.016c-1.056-1.032-1.079-2.741-0.024-3.789
	c7.223-7.263,16.865-11.272,27.097-11.272h0.024c10.264,0,19.881,3.994,27.16,11.248c1.032,1.048,1.032,2.788,0,3.812
	C210.708,231.519,210.015,231.778,209.306,231.778z"/>
<circle style="fill:#113E49;" cx="320.039" cy="205.115" r="12.784"/>
<path d="M307.239,205.115c0,7.066,5.727,12.784,12.784,12.784c7.058,0,12.776-5.719,12.776-12.784"/>
<path style="fill:#FFD3C5;" d="M294.802,231.778c0.685,0,1.386-0.26,1.914-0.796c6.246-6.239,14.525-9.681,23.324-9.681h0.024
	c8.783,0,17.069,3.442,23.268,9.665c1.055,1.056,2.765,1.079,3.805,0.016c1.055-1.032,1.079-2.741,0.024-3.789
	c-7.223-7.263-16.865-11.272-27.097-11.272h-0.024c-10.264,0-19.889,3.994-27.16,11.248c-1.04,1.048-1.04,2.788,0,3.812
	C293.415,231.519,294.101,231.778,294.802,231.778z"/>
<path style="fill:#CC753A;" d="M199.302,71.971l13.178,19.527h190.18c-34.359-30.752-88.946-56.596-150.599-56.596
	c-61.661,0-116.248,25.844-150.599,56.604h84.685L199.302,71.971z"/>
<path style="fill:#BA6831;" d="M199.302,71.971l13.178,19.527h190.18c-34.359-30.752-88.946-45.978-150.599-45.978
	c-61.661,0-116.248,15.226-150.599,45.978h84.685L199.302,71.971z"/>
<ellipse style="fill:#A54A53;" cx="252.062" cy="243.791" rx="10.728" ry="8.129"/>
<path style="fill:#232728;" d="M236.071,399.116c3.986,6.829,6.932,24.552,0.11,28.554l-43.063,13.068
	c-6.814,4.009-15.565,1.701-19.551-5.128l0,0c-3.97-6.806-1.662-15.565,5.136-19.535l41.559-36.32
	C227.092,375.761,232.07,392.279,236.071,399.116L236.071,399.116z"/>
<path style="fill:#F9C1AC;" d="M189.377,421.983c6.294-0.63,33.768,1.733,34.414,8.003c0.646,6.286-25.813,14.123-32.122,14.754
	c-6.262,0.638-11.894-3.946-12.524-10.216C178.523,428.237,183.107,422.636,189.377,421.983z"/>
<path style="fill:#232728;" d="M284.9,399.265c-7.617-2.135-25.505-0.52-27.664,7.089l-1.788,44.969
	c-2.15,7.601,2.284,15.486,9.893,17.621l0,0c7.601,2.119,15.494-2.316,17.613-9.901l24.663-49.38
	C309.768,402.078,292.517,401.408,284.9,399.265L284.9,399.265z"/>
<path style="fill:#F9C1AC;" d="M256.008,459.894c-1.709,6.081-4.104,33.579,1.969,35.281c6.081,1.709,18.337-23.024,20.047-29.105
	c1.701-6.073-1.843-12.398-7.924-14.108C264.027,450.261,257.717,453.821,256.008,459.894z"/>
<g>
</g>
<g>
</g>
<g>
</g>
<g>
</g>
<g>
</g>
<g>
</g>
<g>
</g>
<g>
</g>
<g>
</g>
<g>
</g>
<g>
</g>
<g>
</g>
<g>
</g>
<g>
</g>
<g>
</g>
</svg>
